<?xml version="1.0" encoding="UTF-8"?><svg id="Layer_2" xmlns="http://www.w3.org/2000/svg" viewBox="0 0 138.8 51.71"><defs><style>.cls-1{font-family:FuturaPT-Book, 'Futura PT';font-size:42.25px;}.cls-1,.cls-2{fill:#472366;}</style></defs><g id="Layer_1-2"><path class="cls-2" d="m38.25,25.19c-.41-1.67-1.31-3.36-.89-5.13.28-1.68.68-3.32.3-5-.51-2.62-3.06-6.74-5.97-6.86,0,0,.42-.33.42-.33-.73,2.22.52,4.52.96,6.76.71,2.37-.51,5.56-3.27,5.62,2.53-.4,3.39-3.29,2.62-5.47-.68-2.39-2.14-4.92-1.12-7.52,3.67-.39,6.7,4.47,7.21,7.64.32,1.77-.21,3.56-.61,5.24-.53,1.71.19,3.34.35,5.04h0Z"/><path class="cls-2" d="m28.76,20.43c-1.24-2.32-4.32-5.38-7.13-4.64,0,0,.14-.8.14-.8.92.91,2.7,2.33,2.1,3.85-.09.2-.17.37-.25.55l-.27-.64c2.63,1.07,5.58,1.36,8.18,2.56-2.99-.66-6.08-.71-8.98-1.84,0,0,.2-.48.2-.48.15-.37.34-.74.29-.84-.3-.93-1.19-1.74-1.94-2.47,0,0-.54-.51-.54-.51,3.46-1.85,7.34,2.12,8.2,5.24h0Z"/><path class="cls-2" d="m19.17,19.4c-1.08-.63-2.47-1.68-1.97-3.12.13-.45.35-.83.56-1.2l.36.73c-.49-.01-1.01.32-1.46.76-.87.91-1.68,2.05-1.85,3.35-.09.66-.1,1.38-.23,2.08-.14-.7-.31-1.37-.35-2.11-.11-2.03,1.64-5.05,3.94-5.02,0,0,.82.06.82.06-1.62,2.17-1.47,2.42.17,4.46h0Z"/><path class="cls-2" d="m11.58,24.54c-2.1-5.36-2.04-11.54.07-16.9,1.06-2.65,2.61-5.68,5.56-6.67,1.04-.35,2.44-.14,3.07.87,1.01,1.93.5,3.85.61,5.86-.14,3.73-.27,7.85-2.2,11.13,1.53-3.43,1.45-7.42,1.43-11.13,0,0-.1-2.84-.1-2.84-.03-.94-.06-1.88-.49-2.51-.42-.62-1.25-.74-2.05-.47-2.55.97-3.96,3.65-5,6.1-2.12,5.23-2.43,11.08-.92,16.56h0Z"/><path class="cls-2" d="m11.28,25.97c-.1.46-.39.88-.7,1.22-1.42,1.07-3.19,1.63-5.04,1.46-1.64-.35-3.14-1.06-4.77-.69-.01,0,.05-.02.08-.1.04-.09.02-.15.02-.17.69.72,1.81,1.44,2.48,2.21.86.79,1.96,1.39,3.14,1.36.97,0,2.27-.37,3.41-.37-1.38,3.38-5.56,2.36-8.33,3.32,0,0,.16-.44.16-.44,1.29,1.51,4.09,1.45,5.97,1.6-1.66.18-3.4.23-5.03-.27-.63-.19-1.36-.59-1.71-1.33,1.28-.67,3.04-.8,4.43-1.06,1.14-.23,2.63-.49,3.23-1.51,0,0,.44.71.44.71-.73.04-1.63.35-2.57.34-1.9.07-3.52-1.25-4.7-2.55-.57-.56-1.38-.94-1.76-1.73-.33-1.43,2.41-.93,3.18-.76,1.7.53,3.12,1.17,4.89.66,1.25-.29,2.57-.72,3.19-1.91h0Z"/><text class="cls-1" transform="translate(64.31 35.71)"><tspan x="0" y="0">erby</tspan></text><path class="cls-2" d="m69.12,21.1c-.52-.16-1.75-.24-3.7-.24h-4.1l-.37,1.15c-1.51,4.83-3.18,8.86-5.02,12.1-1.84,3.23-4.14,6.18-6.91,8.85-2.82,2.75-6.03,4.9-9.62,6.45-3.59,1.54-7.15,2.32-10.68,2.32-4,0-7.59-.85-10.79-2.56-2.86-1.51-5.09-3.64-6.69-6.39s-2.4-5.82-2.4-9.19c0-4.46,1.41-8.03,4.24-10.71,2.82-2.68,6.58-4.02,11.27-4.02,5.26,0,10.87,2.42,16.84,7.27,1.99,1.62,4.74,4.23,8.26,7.83l.83.83c.89-1.51,1.33-3.1,1.33-4.77,0-2.59-1.13-4.74-3.38-6.45-2.26-1.71-5.22-2.66-8.9-2.85.44-.76.79-1.62,1.04-2.56l18.89-.08c.14-.46.25-.81.32-1.04.78-2.7,1.42-4.64,1.92-5.82.5-1.18,1.14-2.27,1.92-3.26,1.46-1.88,3.45-3.67,5.99-5.35,2.59-1.72,4.8-2.58,6.61-2.58.35,0,.81.05,1.36.16-.23,1.35-.75,3.41-1.57,6.18l-.19.67h-.99c.32-1.14.48-1.94.48-2.4,0-1.14-.61-1.71-1.84-1.71-1.9,0-3.75.71-5.54,2.13-.94.76-1.68,1.69-2.21,2.78-.53,1.09-1.25,3.15-2.16,6.17l-1.01,3.44-.19.64h10.18l-3.2,3.04Zm-10.63-.24l-12.18-.08c1.88.85,3.41,2.1,4.58,3.74s1.76,3.36,1.76,5.16c0,2.79-1.04,5.88-3.12,9.27-5.04-5.97-9.95-10.54-14.71-13.72-4.76-3.18-9.09-4.77-12.98-4.77-3.38,0-6.17,1.09-8.38,3.28s-3.32,4.95-3.32,8.29c0,5.08,1.97,9.26,5.9,12.54,3.93,3.28,8.95,4.92,15.04,4.92,6.77,0,12.5-2.45,17.2-7.35s8.1-11.99,10.19-21.26Z"/></g></svg>